<svg xmlns="http://www.w3.org/2000/svg" xmlns:xlink="http://www.w3.org/1999/xlink" id="Layer_1" x="0" y="0" enable-background="new 0 0 52 60" version="1.1" viewBox="0 0 52 60" xml:space="preserve"><polygon fill="#6a279c" points="0 24 0 48 4 48 4 52 8 52 8 56 16 56 16 60 36 60 36 56 44 56 44 52 48 52 48 48 52 48 52 24 48 24 48 20 44 20 44 16 40 16 40 12 36 12 36 8 32 8 32 4 28 4 28 0 24 0 24 4 20 4 20 8 16 8 16 12 12 12 12 16 8 16 8 20 4 20 4 24"/><polygon fill="#F8C825" points="24 8 24 12 20 12 20 16 16 16 16 20 12 20 12 24 8 24 8 28 4 28 4 44 8 44 8 48 12 48 12 52 20 52 20 56 28 56 28 52 24 52 24 48 16 48 16 44 12 44 12 40 8 40 8 32 12 32 12 28 16 28 16 24 20 24 20 20 24 20 24 16 28 16 28 8"/><polygon fill="#F8FF25" points="24 8 28 8 28 12 32 12 32 16 36 16 36 20 40 20 40 24 44 24 44 28 48 28 48 44 44 44 44 48 40 48 40 52 36 52 32 52 32 56 28 56 28 52 24 52 24 48 36 48 36 44 40 44 40 40 44 40 44 32 40 32 40 28 36 28 36 24 32 24 32 20 28 20 28 16 24 16"/><polygon fill="#F8FF25" points="24 44 28 44 28 40 32 40 32 36 20 36 20 40 24 40"/><rect width="4" height="4" x="20" y="36" fill="#F8C825"/><rect width="4" height="4" x="24" y="40" fill="#F8C825"/></svg>