<?xml version="1.0" encoding="utf-8"?>
<!-- Generator: Adobe Illustrator 17.1.0, SVG Export Plug-In . SVG Version: 6.00 Build 0)  -->
<!DOCTYPE svg PUBLIC "-//W3C//DTD SVG 1.1//EN" "http://www.w3.org/Graphics/SVG/1.1/DTD/svg11.dtd">
<svg version="1.1" id="Layer_1" xmlns="http://www.w3.org/2000/svg" xmlns:xlink="http://www.w3.org/1999/xlink" x="0px" y="0px"
	 viewBox="0 0 114.4 66" enable-background="new 0 0 114.4 66" xml:space="preserve">
<polygon fill="#6a279c" points="0,13.7 22,13.7 22,18.1 35.2,18.1 35.2,4.9 39.6,4.9 39.6,0.5 66,0.5 66,4.9 70.4,4.9 70.4,18.1 
	92.4,18.1 92.4,13.7 114.4,13.7 114.4,31.3 110,31.3 110,35.7 105.6,35.7 105.6,40.1 96.8,40.1 96.8,44.5 83.6,44.5 83.6,48.9 
	88,48.9 88,53.3 92.4,53.3 92.4,66.5 22,66.5 22,53.3 26.4,53.3 26.4,48.9 39.6,48.9 39.6,44.5 17.6,44.5 17.6,40.1 8.8,40.1 
	8.8,35.7 4.4,35.7 4.4,31.3 0,31.3 "/>
<path fill="#F8FF25" d="M96.8,18.1v4.4H83.6v4.4h-8.8v-4.4H66V9.3h-4.4V4.9H44v4.4h-4.4v8.8H44v-4.4h8.8v4.4h-4.4v4.4h-8.8v4.4h-8.8
	v-4.4H17.6v-4.4H4.4v8.8h4.4v4.4h4.4v4.4H22v4.4h22v17.6h-4.4v-4.4h-8.8v4.4h-4.4v4.4H88v-4.4h-4.4v-4.4h-4.4v-4.4h-4.4v8.8h-4.4
	V40.1h22v-4.4h8.8v-4.4h4.4v-4.4h4.4v-8.8H96.8z M66,57.7H48.4v-4.4h4.4v-4.4h8.8v4.4H66V57.7z"/>
<rect x="66" y="26.9" fill="#F8C825" width="30.8" height="4.4"/>
<rect x="66" y="35.7" fill="#F8C825" width="22" height="4.4"/>
<rect x="96.8" y="18.1" fill="#F8C825" width="8.8" height="4.4"/>
<rect x="74.8" y="53.3" fill="#F8C825" width="4.4" height="4.4"/>
<polygon fill="#F8C825" points="35.2,57.7 35.2,53.3 30.8,53.3 30.8,57.7 26.4,57.7 26.4,62.1 57.2,62.1 57.2,57.7 "/>
<polygon fill="#F8C825" points="39.6,18.1 44,18.1 44,13.7 48.4,13.7 48.4,9.3 57.2,9.3 57.2,4.9 44,4.9 44,9.3 39.6,9.3 "/>
<polygon fill="#F8C825" points="4.4,18.1 13.2,18.1 13.2,22.5 26.4,22.5 26.4,26.9 8.8,26.9 8.8,22.5 4.4,22.5 "/>
<polygon fill="#F8C825" points="44,53.3 48.4,53.3 48.4,48.9 52.8,48.9 52.8,44.5 57.2,44.5 57.2,40.1 61.6,40.1 61.6,35.7 
	57.2,35.7 57.2,31.3 61.6,31.3 61.6,26.9 57.2,26.9 57.2,18.1 48.4,18.1 48.4,22.5 39.6,22.5 39.6,26.9 52.8,26.9 52.8,31.3 
	13.2,31.3 13.2,35.7 52.8,35.7 52.8,40.1 44,40.1 "/>
</svg>
