<svg xmlns="http://www.w3.org/2000/svg" xmlns:xlink="http://www.w3.org/1999/xlink" id="Layer_1" x="0" y="0" enable-background="new 0 0 243.3 66" version="1.1" viewBox="0 0 243.3 66" xml:space="preserve"><path fill="#f8c825" d="M67.9,8h11.2c2.8,0,4.9,0.8,6.3,2.1c1.3,1.1,1.9,2.7,1.9,4.2c0,0.6,0,1.3-0.2,1.9c-0.4,0.9-0.9,1.9-1.7,2.7	c-0.4,0.4-0.8,0.6-1.1,0.8c1.3,0.4,2.5,1.1,3.4,2.1c0.8,0.9,1.1,2.1,1.1,3.8c0,0.9-0.2,2.1-0.6,2.8c-0.4,0.8-1.1,1.5-1.9,2.1	c-0.9,0.6-1.9,0.9-2.8,1.3c-1.1,0.4-2.5,0.4-3.8,0.4H68.1V8H67.9z M78.1,17.8c0.9,0,1.9-0.2,2.8-0.6c0.8-0.4,1.1-1.1,1.1-1.9	c0-0.8-0.4-1.5-0.9-1.9c-0.8-0.6-1.7-0.8-2.7-0.6h-5.3V18h4.9V17.8z M79.5,27.5c0.9,0,1.9-0.2,2.8-0.6c0.8-0.4,1.1-1.1,0.9-2.1	c0-0.8-0.4-1.5-0.9-1.9c-0.6-0.4-1.7-0.8-3-0.8H73v5.3H79.5z"/><rect width="5.3" height="24.3" x="95.4" y="8" fill="#f8c825"/><polygon fill="#f8c825" points="108.9 8 113.8 8 125.2 22.9 125.2 8 130.5 8 130.5 32.2 125.9 32.2 114 16.9 114 32.2 108.9 32.2"/><path fill="#f8c825" d="M146.6,7.8h4.9L162,32.2h-5.5l-2.3-5.5h-10.2l-2.3,5.5h-5.5L146.6,7.8z M152.3,22.2l-3.2-8l-3.2,8H152.3z"/><polygon fill="#f8c825" points="167.7 8 172.6 8 184 22.9 184 8 189.3 8 189.3 32.2 184.7 32.2 173 16.9 173 32.2 167.7 32.2"/><path fill="#f8c825" d="M208.6,32.6c-1.7,0-3.4-0.4-4.9-0.9c-3-1.3-5.3-3.6-6.6-6.6c-0.6-1.5-0.9-3.2-0.9-4.9c0-3.2,1.3-6.4,3.6-8.9	c1.1-1.1,2.5-2.1,4-2.7c1.7-0.8,3.4-0.9,5.1-0.9c0.9,0,2.1,0,3,0.2c0.9,0.2,1.7,0.4,2.5,0.8c0.8,0.4,1.5,0.8,2.1,1.1	c0.6,0.4,1.3,0.9,1.9,1.5l-3.2,4c-0.9-0.8-1.9-1.5-2.8-2.1c-0.9-0.6-2.1-0.8-3.2-0.8c-0.9,0-1.9,0.2-2.8,0.6	c-0.9,0.4-1.7,0.9-2.3,1.7c-0.6,0.8-1.1,1.5-1.5,2.5c-0.4,0.9-0.6,1.9-0.6,2.8c0,0.9,0.2,2.1,0.6,3c0.4,0.9,0.8,1.7,1.5,2.5	c1.3,1.5,3.2,2.3,5.1,2.3c1.1,0,2.5-0.2,3.6-0.8c0.9-0.6,2.1-1.3,2.8-2.1l3.4,3.4c-0.6,0.6-1.3,1.3-1.9,1.9	c-0.8,0.6-1.5,0.9-2.3,1.3c-0.8,0.4-1.7,0.8-2.7,0.9C210.7,32.6,209.6,32.6,208.6,32.6"/><polygon fill="#f8c825" points="224.9 8 243.1 8 243.1 12.7 230.1 12.7 230.1 17.6 241.6 17.6 241.6 22.4 230.1 22.4 230.1 27.5 243.3 27.5 243.3 32.2 224.9 32.2"/><path fill="#f8c825" d="M74.7,56.1c-1.3,0-2.7-0.2-3.8-0.8c-1.1-0.4-2.3-1.1-3.4-2.1l1.9-2.1c0.8,0.8,1.5,1.1,2.5,1.7	c0.9,0.4,1.9,0.6,2.8,0.6c0.8,0,1.5-0.2,2.3-0.6c0.6-0.4,0.8-0.9,0.8-1.5c0-0.2,0-0.6-0.2-0.8c-0.2-0.2-0.4-0.6-0.6-0.8	c-0.4-0.2-0.8-0.4-1.1-0.6c-0.6-0.2-1.3-0.4-1.9-0.6c-0.8-0.2-1.7-0.4-2.5-0.8c-0.6-0.2-1.3-0.6-1.7-0.9c-0.4-0.4-0.8-0.8-1.1-1.3	c-0.4-0.8-0.4-1.5-0.4-2.1c0-0.8,0.2-1.3,0.4-2.1c0.2-0.6,0.8-1.1,1.1-1.5c0.6-0.4,1.1-0.8,1.9-0.9c0.8-0.2,1.5-0.4,2.3-0.4	c1.1,0,2.3,0.2,3.4,0.6c0.9,0.4,1.9,0.9,2.8,1.5l-1.5,2.3c-0.8-0.6-1.5-0.9-2.3-1.3c-0.8-0.4-1.5-0.4-2.3-0.4	c-0.8,0-1.5,0.2-2.1,0.6c-0.4,0.4-0.8,0.9-0.8,1.5c0,0.4,0,0.6,0.2,0.9c0.2,0.2,0.4,0.6,0.6,0.8c0.4,0.2,0.8,0.4,1.3,0.6	c0.6,0.2,1.1,0.4,2.1,0.6c0.8,0.2,1.5,0.4,2.5,0.8c0.6,0.2,1.1,0.6,1.7,0.9c0.4,0.4,0.8,0.9,0.9,1.3c0.2,0.6,0.4,1.1,0.4,1.9	c0,0.8-0.2,1.5-0.4,2.1c-0.4,0.6-0.8,1.1-1.3,1.7c-0.6,0.4-1.1,0.8-1.9,0.9C76.4,55.9,75.5,56.1,74.7,56.1"/><polygon fill="#f8c825" points="84.2 38.9 87.4 38.9 92.6 46.8 97.9 38.9 101.1 38.9 101.1 55.9 98.1 55.9 98.1 43.6 92.7 51.6 92.6 51.6 87.2 43.6 87.2 55.9 84.2 55.9"/><path fill="#f8c825" d="M111.3,38.7h2.8l7.4,17.1h-3.2l-1.7-4.2h-8l-1.7,4.2h-3L111.3,38.7z M115.7,49.1l-3-6.8l-2.8,6.8H115.7z"/><path fill="#f8c825" d="M124.6,38.9h7.6c0.9,0,1.9,0.2,2.8,0.4c0.8,0.2,1.5,0.8,2.1,1.3c0.4,0.4,0.8,0.9,1.1,1.7	c0.2,0.6,0.4,1.3,0.4,2.1c0,0.6-0.2,1.3-0.4,1.9c-0.2,0.6-0.6,0.9-0.8,1.5c-0.4,0.4-0.8,0.8-1.3,1.1c-0.6,0.4-1.1,0.6-1.7,0.8	l4.6,6.4h-3.6l-4.2-5.9h-3.8v5.9h-3L124.6,38.9z M132,47.2c0.9,0,1.9-0.2,2.5-0.8c0.6-0.6,0.9-1.3,0.9-2.1c0-0.8-0.4-1.5-0.9-2.1	c-0.8-0.6-1.7-0.8-2.7-0.8h-4.4v5.7H132z"/><polygon fill="#f8c825" points="146.4 41.5 140.9 41.5 140.9 38.9 154.8 38.9 154.8 41.5 149.3 41.5 149.3 55.9 146.2 55.9"/><path fill="#f8c825" d="M173.2,56.1c-1.1,0-2.3-0.2-3.4-0.8c-2.1-0.9-3.8-2.5-4.6-4.6c-0.4-1.1-0.8-2.3-0.6-3.4	c0-1.1,0.2-2.3,0.6-3.4c0.8-2.1,2.5-3.8,4.6-4.7c1.1-0.4,2.3-0.8,3.6-0.8c0.8,0,1.5,0,2.1,0.2c0.6,0.2,1.1,0.4,1.7,0.6	c0.6,0.2,0.9,0.6,1.5,0.8c0.4,0.4,0.9,0.8,1.3,1.1l-1.9,2.3c-0.6-0.6-1.3-1.1-2.1-1.5c-0.8-0.4-1.7-0.6-2.7-0.6	c-0.8,0-1.5,0.2-2.3,0.4c-0.8,0.4-1.3,0.8-1.9,1.3c-0.6,0.6-0.9,1.1-1.1,1.9c-0.2,0.8-0.4,1.5-0.4,2.3c0,0.8,0.2,1.5,0.4,2.3	c0.2,0.8,0.6,1.3,1.1,1.9c0.6,0.6,1.1,0.9,1.9,1.3c0.8,0.4,1.5,0.6,2.3,0.4c0.9,0,1.9-0.2,2.7-0.6c0.8-0.4,1.5-0.9,2.3-1.7l1.9,1.9	l-1.3,1.3c-0.6,0.4-0.9,0.8-1.5,0.9c-0.6,0.2-1.1,0.6-1.9,0.6C174.7,56.1,173.9,56.1,173.2,56.1"/><polygon fill="#f8c825" points="183.2 38.9 186.1 38.9 186.1 45.9 194.2 45.9 194.2 38.9 197.2 38.9 197.2 55.9 194.2 55.9 194.2 48.7 186.1 48.7 186.1 55.9 183.2 55.9"/><path fill="#f8c825" d="M207.7,38.7h2.8l7.4,17.1h-3.2l-1.7-4.2h-8l-1.7,4.2h-3L207.7,38.7z M211.8,49.1l-2.8-6.8l-2.8,6.8H211.8z"/><rect width="3" height="17.1" x="220.9" y="38.9" fill="#f8c825"/><polygon fill="#f8c825" points="228.5 38.9 231.2 38.9 240.3 50.6 240.3 38.9 243.3 38.9 243.3 55.9 240.9 55.9 231.6 43.8 231.6 55.9 228.5 55.9"/><path fill="#f8c825" d="M34.5,54.8v7.4L28.1,66l-6.3-3.8v-7.4l6.3,3.8L34.5,54.8z M0,29.2L6.3,33v12.7l10.8,6.4v7.4L0,49.5V29.2z M56.1,29.2v20.3L38.9,59.6v-7.4l10.8-6.4V33L56.1,29.2z M38.9,19.2l6.4,3.8v7.4l-10.8,6.4v12.9l-6.3,3.8L22,49.7V36.8l-11.2-6.4	v-7.4l6.4-3.8l10.8,6.4L38.9,19.2z M10.8,35.7l6.3,3.8v7.4l-6.3-3.8V35.7z M45.3,35.7v7.4l-6.3,3.8v-7.4L45.3,35.7z M6.3,12.7	l6.4,3.8l-6.4,3.8v7.4L0,23.9v-7.4L6.3,12.7z M49.9,12.7l6.4,3.8v7.4l-6.4,3.8v-7.4l-6.3-3.8L49.9,12.7z M28.1,12.7l6.4,3.8	l-6.4,3.8l-6.3-3.8L28.1,12.7z M28.1,0l17.3,10.1l-6.3,3.8L28.3,7.4l-11,6.4L11,10.1L28.1,0z"/></svg>