<?xml version="1.0" encoding="utf-8"?>
<!-- Generator: Adobe Illustrator 17.1.0, SVG Export Plug-In . SVG Version: 6.00 Build 0)  -->
<!DOCTYPE svg PUBLIC "-//W3C//DTD SVG 1.1//EN" "http://www.w3.org/Graphics/SVG/1.1/DTD/svg11.dtd">
<svg width="32" height="28" viewBox="0 0 32 28" fill="none" xmlns="http://www.w3.org/2000/svg"><g clip-path="url(#clip-logo)"><path fill-rule="evenodd" clip-rule="evenodd" d="M13.9993 5.09894e-05C16.4726 -0.00129178 18.9022 0.651935 21.0414 1.89339C23.0738 3.08043 24.7751 4.75831 25.9901 6.77252C25.9361 6.69241 25.8817 6.61329 25.8272 6.53516L19.4087 12.5645L12.9198 6.46154V16.6429L8.59125 12.5645L1.15153 19.5616C-0.356183 16.0752 -0.3938 12.097 1.10038 8.55088C2.52569 5.19668 5.19627 2.526 8.55035 1.10065C10.2736 0.369376 12.1273 -0.00502799 13.9993 5.09894e-05ZM1.96461 21.1545C4.48181 25.4039 9.05801 28.0082 13.9993 28C19.0241 28.0004 23.6638 25.3077 26.1563 20.9445C28.3587 17.0891 28.5861 12.452 26.8483 8.4386L19.4087 15.4355L15.0802 11.3571V21.5385L8.59125 15.4355L2.17276 21.4648C2.10311 21.3614 2.03346 21.258 1.96461 21.1545Z" fill="white"></path></g><defs><clipPath id="clip-logo"><rect width="32" height="28" fill="white"></rect></clipPath></defs></svg>
