<svg xmlns="http://www.w3.org/2000/svg" xmlns:xlink="http://www.w3.org/1999/xlink" id="Layer_1" x="0" y="0" enable-background="new 0 0 52 60" version="1.1" viewBox="0 0 52 60" xml:space="preserve"><polygon fill="#6a279c" points="16 12 0 12 0 28 4 28 4 32 0 32 0 48 4 48 4 52 20 52 20 60 32 60 32 52 48 52 48 48 52 48 52 32 48 32 48 28 52 28 52 12 36 12 36 8 32 8 32 4 28 4 28 0 24 0 24 4 20 4 20 8 16 8"/><polygon fill="#F8C825" points="4 16 4 24 8 24 8 28 12 28 12 32 16 32 16 36 4 36 4 44 8 44 8 48 12 48 12 44 16 44 16 40 24 40 24 36 28 36 28 20 24 20 24 12 20 12 20 16 16 16 16 20 20 20 20 24 12 24 12 20 8 20 8 16"/><rect width="4" height="4" x="36" y="20" fill="#F8C825"/><rect width="4" height="4" x="44" y="40" fill="#F8C825"/><rect width="8" height="4" x="36" y="44" fill="#F8C825"/><polygon fill="#F8FF25" points="24 8 24 20 28 20 28 36 24 36 24 40 24 56 28 56 28 40 32 40 32 44 44 44 44 40 48 40 48 36 44 36 44 32 40 32 40 36 36 36 36 32 40 32 40 28 44 28 44 24 48 24 48 16 40 16 40 24 32 24 32 20 36 20 36 16 32 16 32 12 28 12 28 8"/><rect width="4" height="4" x="12" y="44" fill="#F8FF25"/><rect width="4" height="4" x="16" y="40" fill="#F8FF25"/><rect width="4" height="4" x="12" y="20" fill="#F8FF25"/><rect width="4" height="4" x="8" y="32" fill="#F8FF25"/><rect width="4" height="4" x="8" y="16" fill="#F8FF25"/></svg>