<svg xmlns="http://www.w3.org/2000/svg" xmlns:xlink="http://www.w3.org/1999/xlink" id="Layer_1" x="0" y="0" enable-background="new 0 0 64 21" version="1.1" viewBox="0 0 64 21" xml:space="preserve"><path fill="#590078" d="M32,0h-1H1v1H0v5h1v1v10l2,0v4h58v-4l2,0V7h1V0C53,0,43,0,32,0z"/><rect width="3" height="1" x="3" y="1" fill="#64FFF4"/><rect width="3" height="1" x="3" y="5" fill="#64FFF4"/><rect width="3" height="1" x="9" y="3" fill="#64FFF4"/><rect width="5" height="1" x="45" y="4" fill="#64FFF4"/><rect width="4" height="1" x="51" y="4" fill="#64FFF4"/><rect width="3" height="1" x="58" y="3" fill="#64FFF4"/><rect width="4" height="1" x="51" y="1" fill="#64FFF4"/><rect width="5" height="1" x="57" y="1" fill="#64FFF4"/><rect width="5" height="1" x="57" y="5" fill="#64FFF4"/><rect width="4" height="1" x="14" y="5" fill="#64FFF4"/><rect width="3" height="1" x="46" y="1" fill="#64FFF4"/><rect width="4" height="1" x="14" y="3" fill="#64FFF4"/><rect width="4" height="1" x="14" y="1" fill="#64FFF4"/><rect width="4" height="1" x="26" y="4" fill="#64FFF4"/><rect width="4" height="1" x="26" y="1" fill="#64FFF4"/><rect width="4" height="1" x="20" y="3" fill="#64FFF4"/><rect width="4" height="1" x="21" y="1" fill="#64FFF4"/><rect width="4" height="1" x="21" y="5" fill="#64FFF4"/><rect width="4" height="1" x="33" y="5" fill="#64FFF4"/><rect width="4" height="1" x="33" y="3" fill="#64FFF4"/><rect width="4" height="1" x="33" y="1" fill="#64FFF4"/><rect width="4" height="1" x="39" y="3" fill="#64FFF4"/><rect width="4" height="1" x="40" y="1" fill="#64FFF4"/><rect width="4" height="1" x="40" y="5" fill="#64FFF4"/><rect width="1" height="3" x="2" y="2" fill="#FF6BFF"/><rect width="1" height="2" x="10" y="4" fill="#09EAFF"/><rect width="1" height="4" x="45" y="2" fill="#FF6BFF"/><rect width="1" height="4" x="49" y="2" fill="#09EAFF"/><rect width="1" height="1" x="3" y="5" fill="#FF6BFF"/><rect width="1" height="1" x="6" y="4" fill="#09EAFF"/><rect width="1" height="1" x="6" y="2" fill="#09EAFF"/><rect width="1" height="1" x="5" y="1" fill="#09EAFF"/><rect width="1" height="1" x="1" fill="#09EAFF"/><rect width="1" height="1" x="1" y="6" fill="#09EAFF"/><rect width="1" height="10" y="7" fill="#09EAFF"/><rect width="1" height="17" x="63" fill="#FF6BFF"/><rect width="1" height="5" y="1" fill="#09EAFF"/><rect width="1" height="1" x="5" y="5" fill="#09EAFF"/><rect width="1" height="1" x="3" y="1" fill="#FF6BFF"/><rect width="1" height="1" x="7" y="7" fill="#FF6BFF"/><rect width="1" height="1" x="8" y="5" fill="#64FFF4"/><rect width="1" height="1" x="12" y="6" fill="#09EAFF"/><rect width="1" height="1" x="19" y="6" fill="#FF6BFF"/><rect width="1" height="1" x="28" y="6" fill="#09EAFF"/><rect width="1" height="1" x="29" y="4" fill="#09EAFF"/><rect width="1" height="1" x="29" y="1" fill="#09EAFF"/><rect width="1" height="1" x="9" y="3" fill="#FF6BFF"/><rect width="1" height="1" x="11" y="3" fill="#09EAFF"/><rect width="1" height="1" x="10" fill="#FF6BFF"/><rect width="1" height="1" x="31" fill="#FF6BFF"/><rect width="1" height="1" x="19" fill="#09EAFF"/><rect width="1" height="1" x="38" y="6" fill="#09EAFF"/><rect width="1" height="1" x="47" y="6" fill="#FF6BFF"/><rect width="1" height="1" x="53" y="6" fill="#FF6BFF"/><rect width="2" height="2" x="53" y="19" fill="#FF6BFF"/><rect width="1" height="1" x="54" y="1" fill="#09EAFF"/><rect width="1" height="1" x="54" y="4" fill="#09EAFF"/><rect width="1" height="2" x="12" y="1" fill="#09EAFF"/><rect width="1" height="2" x="8" y="1" fill="#FF6BFF"/><rect width="1" height="1" x="46" y="1" fill="#FF6BFF"/><rect width="1" height="1" x="18" y="4" fill="#09EAFF"/><rect width="1" height="5" x="51" y="1" fill="#FF6BFF"/><rect width="1" height="2" x="55" y="2" fill="#09EAFF"/><rect width="1" height="1" x="55" y="5" fill="#09EAFF"/><rect width="1" height="2" x="57" y="4" fill="#FF6BFF"/><rect width="1" height="2" x="61" y="1" fill="#09EAFF"/><rect width="1" height="1" x="58" y="3" fill="#FF6BFF"/><rect width="1" height="1" x="60" y="3" fill="#09EAFF"/><rect width="1" height="1" x="57" y="1" fill="#FF6BFF"/><rect width="1" height="1" x="61" y="5" fill="#09EAFF"/><rect width="1" height="3" x="20" y="2" fill="#FF6BFF"/><rect width="1" height="5" x="14" y="1" fill="#FF6BFF"/><rect width="1" height="1" x="48" y="1" fill="#09EAFF"/><rect width="1" height="1" x="17" y="5" fill="#09EAFF"/><rect width="1" height="1" x="17" y="3" fill="#09EAFF"/><rect width="1" height="1" x="17" y="1" fill="#09EAFF"/><rect width="1" height="1" x="18" y="2" fill="#09EAFF"/><rect width="1" height="5" x="26" y="1" fill="#FF6BFF"/><rect width="1" height="2" x="30" y="2" fill="#09EAFF"/><rect width="1" height="1" x="30" y="5" fill="#09EAFF"/><rect width="1" height="1" x="21" y="5" fill="#FF6BFF"/><rect width="1" height="1" x="24" y="5" fill="#09EAFF"/><rect width="1" height="1" x="23" y="3" fill="#09EAFF"/><rect width="1" height="1" x="42" y="3" fill="#09EAFF"/><rect width="1" height="1" x="24" y="1" fill="#09EAFF"/><rect width="1" height="1" x="21" y="1" fill="#FF6BFF"/><rect width="1" height="1" x="37" y="4" fill="#09EAFF"/><rect width="1" height="3" x="39" y="2" fill="#FF6BFF"/><rect width="1" height="5" x="33" y="1" fill="#FF6BFF"/><rect width="1" height="1" x="36" y="5" fill="#09EAFF"/><rect width="1" height="1" x="36" y="3" fill="#09EAFF"/><rect width="1" height="1" x="36" y="1" fill="#09EAFF"/><rect width="1" height="1" x="37" y="2" fill="#09EAFF"/><rect width="1" height="1" x="40" y="5" fill="#FF6BFF"/><rect width="1" height="1" x="43" y="5" fill="#09EAFF"/><rect width="1" height="1" x="43" y="1" fill="#09EAFF"/><rect width="1" height="1" x="40" y="1" fill="#FF6BFF"/><rect width="1" height="1" x="49" y="7" fill="#09EAFF"/><rect width="6" height="2" x="11" y="9" fill="#F8FF25"/><polygon fill="#F8C825" points="17 15 11 15 11 11 9 11 9 15 9 17 9 19 11 19 11 17 17 17 17 19 19 19 19 17 19 15"/><rect width="2" height="4" x="17" y="11" fill="#F8FF25"/><polygon fill="#F8C825" points="29 15 23 15 23 9 21 9 21 15 21 17 21 19 23 19 23 17 29 17"/><rect width="2" height="10" x="33" y="9" fill="#F8C825"/><rect width="2" height="10" x="41" y="9" fill="#F8FF25"/><rect width="2" height="4" x="41" y="15" fill="#F8C825"/><rect width="2" height="4" x="29" y="11" fill="#F8FF25"/><rect width="2" height="2" x="29" y="17" fill="#F8C825"/><rect width="6" height="2" x="47" y="13" fill="#F8FF25"/><polygon fill="#F8C825" points="49 13 47 13 47 15 49 15 49 19 51 19 51 15 51 13"/><rect width="2" height="2" x="45" y="9" fill="#09EAFF"/><rect width="2" height="4" x="53" y="9" fill="#F8FF25"/><rect width="2" height="4" x="45" y="9" fill="#F8FF25"/><rect width="4" height="2" x="3" y="9" fill="#F8C825"/><rect width="2" height="2" x="5" y="9" fill="#F8FF25"/><rect width="4" height="2" x="3" y="13" fill="#F8C825"/><rect width="2" height="2" x="5" y="13" fill="#F8FF25"/><rect width="4" height="2" x="57" y="9" fill="#F8FF25"/><rect width="2" height="2" x="57" y="9" fill="#F8C825"/><rect width="4" height="2" x="57" y="13" fill="#F8FF25"/><rect width="2" height="2" x="57" y="13" fill="#F8C825"/><rect width="2" height="2" x="5" y="17" fill="#F8FF25"/><rect width="2" height="2" x="57" y="17" fill="#F8C825"/><rect width="2" height="2" x="53" y="19" fill="#09EAFF"/><rect width="2" height="2" x="13" y="19" fill="#09EAFF"/><rect width="2" height="2" x="25" y="19" fill="#FF6BFF"/><rect width="2" height="2" x="37" y="13" fill="#F8C825"/><rect width="2" height="2" x="45" y="11" fill="#F8C825"/><rect width="2" height="2" x="33" y="9" fill="#F8FF25"/><rect width="2" height="2" x="37" y="19" fill="#FF6BFF"/><rect width="1" height="4" x="2" y="17" fill="#09EAFF"/><rect width="1" height="4" x="61" y="17" fill="#FF6BFF"/><rect width="8" height="2" x="21" y="9" fill="#F8FF25"/><rect width="4" height="2" x="33" y="11" fill="#F8FF25"/><rect width="4" height="2" x="39" y="11" fill="#F8FF25"/></svg>