<?xml version="1.0" encoding="utf-8"?>
<!-- Generator: Adobe Illustrator 17.1.0, SVG Export Plug-In . SVG Version: 6.00 Build 0)  -->
<!DOCTYPE svg PUBLIC "-//W3C//DTD SVG 1.1//EN" "http://www.w3.org/Graphics/SVG/1.1/DTD/svg11.dtd">
<svg version="1.1" id="Layer_1" xmlns="http://www.w3.org/2000/svg" xmlns:xlink="http://www.w3.org/1999/xlink" x="0px" y="0px"
	 viewBox="0 0 64 21" enable-background="new 0 0 64 21" xml:space="preserve">
<path fill="#590078" d="M32,0h-1H1v1H0v5h1v1v10l2,0v4h58v-4l2,0V7h1V0C53,0,43,0,32,0z"/>
<rect x="3" y="1" fill="#64FFF4" width="3" height="1"/>
<rect x="3" y="5" fill="#64FFF4" width="3" height="1"/>
<rect x="9" y="3" fill="#64FFF4" width="3" height="1"/>
<rect x="45" y="4" fill="#64FFF4" width="5" height="1"/>
<rect x="51" y="4" fill="#64FFF4" width="4" height="1"/>
<rect x="58" y="3" fill="#64FFF4" width="3" height="1"/>
<rect x="51" y="1" fill="#64FFF4" width="4" height="1"/>
<rect x="57" y="1" fill="#64FFF4" width="5" height="1"/>
<rect x="57" y="5" fill="#64FFF4" width="5" height="1"/>
<rect x="14" y="5" fill="#64FFF4" width="4" height="1"/>
<rect x="46" y="1" fill="#64FFF4" width="3" height="1"/>
<rect x="14" y="3" fill="#64FFF4" width="4" height="1"/>
<rect x="14" y="1" fill="#64FFF4" width="4" height="1"/>
<rect x="26" y="4" fill="#64FFF4" width="4" height="1"/>
<rect x="26" y="1" fill="#64FFF4" width="4" height="1"/>
<rect x="20" y="3" fill="#64FFF4" width="4" height="1"/>
<rect x="21" y="1" fill="#64FFF4" width="4" height="1"/>
<rect x="21" y="5" fill="#64FFF4" width="4" height="1"/>
<rect x="33" y="5" fill="#64FFF4" width="4" height="1"/>
<rect x="33" y="3" fill="#64FFF4" width="4" height="1"/>
<rect x="33" y="1" fill="#64FFF4" width="4" height="1"/>
<rect x="39" y="3" fill="#64FFF4" width="4" height="1"/>
<rect x="40" y="1" fill="#64FFF4" width="4" height="1"/>
<rect x="40" y="5" fill="#64FFF4" width="4" height="1"/>
<rect x="2" y="2" fill="#FF6BFF" width="1" height="3"/>
<rect x="10" y="4" fill="#09EAFF" width="1" height="2"/>
<rect x="45" y="2" fill="#FF6BFF" width="1" height="4"/>
<rect x="49" y="2" fill="#09EAFF" width="1" height="4"/>
<rect x="3" y="5" fill="#FF6BFF" width="1" height="1"/>
<rect x="6" y="4" fill="#09EAFF" width="1" height="1"/>
<rect x="6" y="2" fill="#09EAFF" width="1" height="1"/>
<rect x="5" y="1" fill="#09EAFF" width="1" height="1"/>
<rect x="1" fill="#09EAFF" width="1" height="1"/>
<rect x="1" y="6" fill="#09EAFF" width="1" height="1"/>
<rect y="7" fill="#09EAFF" width="1" height="10"/>
<rect x="63" fill="#FF6BFF" width="1" height="17"/>
<rect y="1" fill="#09EAFF" width="1" height="5"/>
<rect x="5" y="5" fill="#09EAFF" width="1" height="1"/>
<rect x="3" y="1" fill="#FF6BFF" width="1" height="1"/>
<rect x="7" y="7" fill="#FF6BFF" width="1" height="1"/>
<rect x="8" y="5" fill="#64FFF4" width="1" height="1"/>
<rect x="12" y="6" fill="#09EAFF" width="1" height="1"/>
<rect x="19" y="6" fill="#FF6BFF" width="1" height="1"/>
<rect x="28" y="6" fill="#09EAFF" width="1" height="1"/>
<rect x="29" y="4" fill="#09EAFF" width="1" height="1"/>
<rect x="29" y="1" fill="#09EAFF" width="1" height="1"/>
<rect x="9" y="3" fill="#FF6BFF" width="1" height="1"/>
<rect x="11" y="3" fill="#09EAFF" width="1" height="1"/>
<rect x="10" fill="#FF6BFF" width="1" height="1"/>
<rect x="31" fill="#FF6BFF" width="1" height="1"/>
<rect x="19" fill="#09EAFF" width="1" height="1"/>
<rect x="38" y="6" fill="#09EAFF" width="1" height="1"/>
<rect x="47" y="6" fill="#FF6BFF" width="1" height="1"/>
<rect x="53" y="6" fill="#FF6BFF" width="1" height="1"/>
<rect x="53" y="19" fill="#FF6BFF" width="2" height="2"/>
<rect x="54" y="1" fill="#09EAFF" width="1" height="1"/>
<rect x="54" y="4" fill="#09EAFF" width="1" height="1"/>
<rect x="12" y="1" fill="#09EAFF" width="1" height="2"/>
<rect x="8" y="1" fill="#FF6BFF" width="1" height="2"/>
<rect x="46" y="1" fill="#FF6BFF" width="1" height="1"/>
<rect x="18" y="4" fill="#09EAFF" width="1" height="1"/>
<rect x="51" y="1" fill="#FF6BFF" width="1" height="5"/>
<rect x="55" y="2" fill="#09EAFF" width="1" height="2"/>
<rect x="55" y="5" fill="#09EAFF" width="1" height="1"/>
<rect x="57" y="4" fill="#FF6BFF" width="1" height="2"/>
<rect x="61" y="1" fill="#09EAFF" width="1" height="2"/>
<rect x="58" y="3" fill="#FF6BFF" width="1" height="1"/>
<rect x="60" y="3" fill="#09EAFF" width="1" height="1"/>
<rect x="57" y="1" fill="#FF6BFF" width="1" height="1"/>
<rect x="61" y="5" fill="#09EAFF" width="1" height="1"/>
<rect x="20" y="2" fill="#FF6BFF" width="1" height="3"/>
<rect x="14" y="1" fill="#FF6BFF" width="1" height="5"/>
<rect x="48" y="1" fill="#09EAFF" width="1" height="1"/>
<rect x="17" y="5" fill="#09EAFF" width="1" height="1"/>
<rect x="17" y="3" fill="#09EAFF" width="1" height="1"/>
<rect x="17" y="1" fill="#09EAFF" width="1" height="1"/>
<rect x="18" y="2" fill="#09EAFF" width="1" height="1"/>
<rect x="26" y="1" fill="#FF6BFF" width="1" height="5"/>
<rect x="30" y="2" fill="#09EAFF" width="1" height="2"/>
<rect x="30" y="5" fill="#09EAFF" width="1" height="1"/>
<rect x="21" y="5" fill="#FF6BFF" width="1" height="1"/>
<rect x="24" y="5" fill="#09EAFF" width="1" height="1"/>
<rect x="23" y="3" fill="#09EAFF" width="1" height="1"/>
<rect x="42" y="3" fill="#09EAFF" width="1" height="1"/>
<rect x="24" y="1" fill="#09EAFF" width="1" height="1"/>
<rect x="21" y="1" fill="#FF6BFF" width="1" height="1"/>
<rect x="37" y="4" fill="#09EAFF" width="1" height="1"/>
<rect x="39" y="2" fill="#FF6BFF" width="1" height="3"/>
<rect x="33" y="1" fill="#FF6BFF" width="1" height="5"/>
<rect x="36" y="5" fill="#09EAFF" width="1" height="1"/>
<rect x="36" y="3" fill="#09EAFF" width="1" height="1"/>
<rect x="36" y="1" fill="#09EAFF" width="1" height="1"/>
<rect x="37" y="2" fill="#09EAFF" width="1" height="1"/>
<rect x="40" y="5" fill="#FF6BFF" width="1" height="1"/>
<rect x="43" y="5" fill="#09EAFF" width="1" height="1"/>
<rect x="43" y="1" fill="#09EAFF" width="1" height="1"/>
<rect x="40" y="1" fill="#FF6BFF" width="1" height="1"/>
<rect x="49" y="7" fill="#09EAFF" width="1" height="1"/>
<rect x="11" y="9" fill="#F8FF25" width="6" height="2"/>
<polygon fill="#F8C825" points="17,15 11,15 11,11 9,11 9,15 9,17 9,19 11,19 11,17 17,17 17,19 19,19 19,17 19,15 "/>
<rect x="17" y="11" fill="#F8FF25" width="2" height="4"/>
<polygon fill="#F8C825" points="29,15 23,15 23,9 21,9 21,15 21,17 21,19 23,19 23,17 29,17 "/>
<rect x="33" y="9" fill="#F8C825" width="2" height="10"/>
<rect x="41" y="9" fill="#F8FF25" width="2" height="10"/>
<rect x="41" y="15" fill="#F8C825" width="2" height="4"/>
<rect x="29" y="11" fill="#F8FF25" width="2" height="4"/>
<rect x="29" y="17" fill="#F8C825" width="2" height="2"/>
<rect x="47" y="13" fill="#F8FF25" width="6" height="2"/>
<polygon fill="#F8C825" points="49,13 47,13 47,15 49,15 49,19 51,19 51,15 51,13 "/>
<rect x="45" y="9" fill="#09EAFF" width="2" height="2"/>
<rect x="53" y="9" fill="#F8FF25" width="2" height="4"/>
<rect x="45" y="9" fill="#F8FF25" width="2" height="4"/>
<rect x="3" y="9" fill="#F8C825" width="4" height="2"/>
<rect x="5" y="9" fill="#F8FF25" width="2" height="2"/>
<rect x="3" y="13" fill="#F8C825" width="4" height="2"/>
<rect x="5" y="13" fill="#F8FF25" width="2" height="2"/>
<rect x="57" y="9" fill="#F8FF25" width="4" height="2"/>
<rect x="57" y="9" fill="#F8C825" width="2" height="2"/>
<rect x="57" y="13" fill="#F8FF25" width="4" height="2"/>
<rect x="57" y="13" fill="#F8C825" width="2" height="2"/>
<rect x="5" y="17" fill="#F8FF25" width="2" height="2"/>
<rect x="57" y="17" fill="#F8C825" width="2" height="2"/>
<rect x="53" y="19" fill="#09EAFF" width="2" height="2"/>
<rect x="13" y="19" fill="#09EAFF" width="2" height="2"/>
<rect x="25" y="19" fill="#FF6BFF" width="2" height="2"/>
<rect x="37" y="13" fill="#F8C825" width="2" height="2"/>
<rect x="45" y="11" fill="#F8C825" width="2" height="2"/>
<rect x="33" y="9" fill="#F8FF25" width="2" height="2"/>
<rect x="37" y="19" fill="#FF6BFF" width="2" height="2"/>
<rect x="2" y="17" fill="#09EAFF" width="1" height="4"/>
<rect x="61" y="17" fill="#FF6BFF" width="1" height="4"/>
<rect x="21" y="9" fill="#F8FF25" width="8" height="2"/>
<rect x="33" y="11" fill="#F8FF25" width="4" height="2"/>
<rect x="39" y="11" fill="#F8FF25" width="4" height="2"/>
</svg>
