<svg xmlns="http://www.w3.org/2000/svg" viewBox="0 0 50 50"><path fill="#64fff4" d="M 4.90625 2.96875 C 4.863281 2.976563 4.820313 2.988281 4.78125 3 C 4.316406 3.105469 3.988281 3.523438 4 4 L 4 8.6875 C 3.941406 8.882813 3.941406 9.085938 4 9.28125 L 4 14 C 3.996094 14.359375 4.183594 14.695313 4.496094 14.878906 C 4.808594 15.058594 5.191406 15.058594 5.503906 14.878906 C 5.816406 14.695313 6.003906 14.359375 6 14 L 6 10 L 13 10 C 13 10.550781 13.449219 11 14 11 C 14.550781 11 15 10.550781 15 10 L 33 10 C 33 10.550781 33.449219 11 34 11 C 34.550781 11 35 10.550781 35 10 L 40.28125 10 C 40.628906 10.597656 41.261719 11 42 11 C 43.105469 11 46 9 46 9 C 46 9 43.105469 7 42 7 C 41.261719 7 40.628906 7.402344 40.28125 8 L 35 8 C 35 7.449219 34.550781 7 34 7 C 33.449219 7 33 7.449219 33 8 L 15 8 C 15 7.449219 14.550781 7 14 7 C 13.449219 7 13 7.449219 13 8 L 6 8 L 6 4 C 6.011719 3.710938 5.894531 3.433594 5.6875 3.238281 C 5.476563 3.039063 5.191406 2.941406 4.90625 2.96875 Z M 34 11 C 33.449219 11 33 11.449219 33 12 L 15 12 C 15 11.449219 14.550781 11 14 11 C 13.449219 11 13 11.449219 13 12 L 10 12 C 9.96875 12 9.9375 12 9.90625 12 C 9.390625 12.046875 8.996094 12.480469 9 13 L 9 38 C 8.996094 38.359375 9.1875 38.695313 9.5 38.875 L 23.5 46.875 C 23.808594 47.054688 24.191406 47.054688 24.5 46.875 L 38.5 38.875 C 38.8125 38.695313 39.003906 38.359375 39 38 L 39 13 C 39 12.449219 38.550781 12 38 12 L 35 12 C 35 11.449219 34.550781 11 34 11 Z M 11 14 L 13 14 C 13 14.550781 13.449219 15 14 15 C 14.550781 15 15 14.550781 15 14 L 33 14 C 33 14.550781 33.449219 15 34 15 C 34.550781 15 35 14.550781 35 14 L 37 14 L 37 37.40625 L 24 44.84375 L 11 37.40625 Z M 15.8125 23 C 15.261719 23.050781 14.855469 23.542969 14.90625 24.09375 C 14.957031 24.644531 15.449219 25.050781 16 25 L 32 25 C 32.359375 25.003906 32.695313 24.816406 32.878906 24.503906 C 33.058594 24.191406 33.058594 23.808594 32.878906 23.496094 C 32.695313 23.183594 32.359375 22.996094 32 23 L 16 23 C 15.96875 23 15.9375 23 15.90625 23 C 15.875 23 15.84375 23 15.8125 23 Z M 15.8125 29 C 15.261719 29.050781 14.855469 29.542969 14.90625 30.09375 C 14.957031 30.644531 15.449219 31.050781 16 31 L 32 31 C 32.359375 31.003906 32.695313 30.816406 32.878906 30.503906 C 33.058594 30.191406 33.058594 29.808594 32.878906 29.496094 C 32.695313 29.183594 32.359375 28.996094 32 29 L 16 29 C 15.96875 29 15.9375 29 15.90625 29 C 15.875 29 15.84375 29 15.8125 29 Z"/></svg>