<?xml version="1.0" encoding="utf-8"?>
<!-- Generator: Adobe Illustrator 17.1.0, SVG Export Plug-In . SVG Version: 6.00 Build 0)  -->
<!DOCTYPE svg PUBLIC "-//W3C//DTD SVG 1.1//EN" "http://www.w3.org/Graphics/SVG/1.1/DTD/svg11.dtd">
<svg version="1.1" id="Layer_1" xmlns="http://www.w3.org/2000/svg" xmlns:xlink="http://www.w3.org/1999/xlink" x="0px" y="0px"
	 viewBox="0 0 52 60" enable-background="new 0 0 52 60" xml:space="preserve">
<polygon fill="#6a279c" points="16,12 0,12 0,28 4,28 4,32 0,32 0,48 4,48 4,52 20,52 20,60 32,60 32,52 48,52 48,48 52,48 52,32 
	48,32 48,28 52,28 52,12 36,12 36,8 32,8 32,4 28,4 28,0 24,0 24,4 20,4 20,8 16,8 "/>
<polygon fill="#F8C825" points="4,16 4,24 8,24 8,28 12,28 12,32 16,32 16,36 4,36 4,44 8,44 8,48 12,48 12,44 16,44 16,40 24,40 
	24,36 28,36 28,20 24,20 24,12 20,12 20,16 16,16 16,20 20,20 20,24 12,24 12,20 8,20 8,16 "/>
<rect x="36" y="20" fill="#F8C825" width="4" height="4"/>
<rect x="44" y="40" fill="#F8C825" width="4" height="4"/>
<rect x="36" y="44" fill="#F8C825" width="8" height="4"/>
<polygon fill="#F8FF25" points="24,8 24,20 28,20 28,36 24,36 24,40 24,56 28,56 28,40 32,40 32,44 44,44 44,40 48,40 48,36 44,36 
	44,32 40,32 40,36 36,36 36,32 40,32 40,28 44,28 44,24 48,24 48,16 40,16 40,24 32,24 32,20 36,20 36,16 32,16 32,12 28,12 28,8 
	"/>
<rect x="12" y="44" fill="#F8FF25" width="4" height="4"/>
<rect x="16" y="40" fill="#F8FF25" width="4" height="4"/>
<rect x="12" y="20" fill="#F8FF25" width="4" height="4"/>
<rect x="8" y="32" fill="#F8FF25" width="4" height="4"/>
<rect x="8" y="16" fill="#F8FF25" width="4" height="4"/>
</svg>
