<svg xmlns="http://www.w3.org/2000/svg" xmlns:xlink="http://www.w3.org/1999/xlink" id="Layer_1" x="0" y="0" enable-background="new 0 97.4 445 283.2" version="1.1" viewBox="0 97.4 445 283.2" xml:space="preserve"><g id="cyberbearz"><polygon fill="#590078" points="431.5 110.9 431.5 97.4 13.5 97.4 13.5 110.9 0 110.9 0 178.3 13.5 178.3 13.5 191.8 0 191.8 0 353.6 13.5 353.6 13.5 380.6 431.5 380.6 431.5 353.6 445 353.6 445 110.9"/><rect width="40.5" height="13.5" x="40.5" y="110.9" fill="#64FFF4"/><rect width="40.5" height="13.5" x="40.5" y="164.8" fill="#64FFF4"/><rect width="40.5" height="13.5" x="121.4" y="137.9" fill="#64FFF4"/><rect width="67.4" height="13.5" x="188.8" y="245.7" fill="#64FFF4"/><rect width="53.9" height="13.5" x="269.7" y="245.7" fill="#64FFF4"/><rect width="40.5" height="13.5" x="364.1" y="232.3" fill="#64FFF4"/><rect width="53.9" height="13.5" x="269.7" y="205.3" fill="#64FFF4"/><rect width="67.4" height="13.5" x="350.6" y="205.3" fill="#64FFF4"/><rect width="67.4" height="13.5" x="350.6" y="259.2" fill="#64FFF4"/><rect width="53.9" height="13.5" x="188.8" y="164.8" fill="#64FFF4"/><rect width="40.5" height="13.5" x="202.3" y="205.3" fill="#64FFF4"/><rect width="53.9" height="13.5" x="188.8" y="137.9" fill="#64FFF4"/><rect width="53.9" height="13.5" x="188.8" y="110.9" fill="#64FFF4"/><rect width="53.9" height="13.5" x="350.6" y="151.3" fill="#64FFF4"/><rect width="53.9" height="13.5" x="350.6" y="110.9" fill="#64FFF4"/><rect width="53.9" height="13.5" x="269.7" y="137.9" fill="#64FFF4"/><rect width="53.9" height="13.5" x="283.2" y="110.9" fill="#64FFF4"/><rect width="53.9" height="13.5" x="283.2" y="164.8" fill="#64FFF4"/><rect width="53.9" height="13.5" x="27" y="259.2" fill="#64FFF4"/><rect width="53.9" height="13.5" x="27" y="232.3" fill="#64FFF4"/><rect width="53.9" height="13.5" x="27" y="205.3" fill="#64FFF4"/><rect width="53.9" height="13.5" x="107.9" y="232.3" fill="#64FFF4"/><rect width="53.9" height="13.5" x="121.4" y="205.3" fill="#64FFF4"/><rect width="53.9" height="13.5" x="121.4" y="259.2" fill="#64FFF4"/><rect width="13.5" height="40.5" x="27" y="124.4" fill="#FF6BFF"/><rect width="13.5" height="27" x="134.8" y="151.3" fill="#09EAFF"/><rect width="13.5" height="53.9" x="188.8" y="218.8" fill="#FF6BFF"/><rect width="13.5" height="53.9" x="242.7" y="218.8" fill="#09EAFF"/><rect width="13.5" height="13.5" x="40.5" y="164.8" fill="#FF6BFF"/><rect width="13.5" height="13.5" x="80.9" y="151.3" fill="#09EAFF"/><rect width="13.5" height="13.5" x="80.9" y="124.4" fill="#09EAFF"/><rect width="13.5" height="13.5" x="67.4" y="110.9" fill="#09EAFF"/><rect width="13.5" height="13.5" x="13.5" y="97.4" fill="#09EAFF"/><rect width="13.5" height="13.5" x="13.5" y="178.3" fill="#09EAFF"/><rect width="13.5" height="67.4" y="110.9" fill="#09EAFF"/><rect width="13.5" height="13.5" x="67.4" y="164.8" fill="#09EAFF"/><rect width="13.5" height="13.5" x="40.5" y="110.9" fill="#FF6BFF"/><rect width="13.5" height="13.5" x="94.4" y="191.8" fill="#FF6BFF"/><rect width="13.5" height="13.5" x="107.9" y="164.8" fill="#64FFF4"/><rect width="13.5" height="13.5" x="161.8" y="178.3" fill="#09EAFF"/><rect width="13.5" height="13.5" x="256.2" y="178.3" fill="#FF6BFF"/><rect width="13.5" height="13.5" x="377.6" y="178.3" fill="#09EAFF"/><rect width="13.5" height="13.5" x="391.1" y="151.3" fill="#09EAFF"/><rect width="13.5" height="13.5" x="391.1" y="110.9" fill="#09EAFF"/><rect width="13.5" height="13.5" x="121.4" y="137.9" fill="#FF6BFF"/><rect width="13.5" height="13.5" x="148.3" y="137.9" fill="#09EAFF"/><rect width="13.5" height="13.5" x="134.8" y="97.4" fill="#FF6BFF"/><rect width="13.5" height="13.5" x="418" y="97.4" fill="#FF6BFF"/><rect width="13.5" height="242.7" x="431.5" y="110.9" fill="#FF6BFF"/><rect width="13.5" height="13.5" x="256.2" y="97.4" fill="#09EAFF"/><rect width="13.5" height="13.5" x="94.4" y="272.7" fill="#09EAFF"/><rect width="13.5" height="13.5" x="215.8" y="272.7" fill="#FF6BFF"/><rect width="13.5" height="13.5" x="296.7" y="272.7" fill="#FF6BFF"/><rect width="13.5" height="13.5" x="364.1" y="367.1" fill="#FF6BFF"/><rect width="13.5" height="13.5" x="310.2" y="205.3" fill="#09EAFF"/><rect width="13.5" height="13.5" x="310.2" y="245.7" fill="#09EAFF"/><rect width="13.5" height="27" x="161.8" y="110.9" fill="#09EAFF"/><rect width="13.5" height="27" x="107.9" y="110.9" fill="#FF6BFF"/><rect width="13.5" height="13.5" x="202.3" y="205.3" fill="#FF6BFF"/><rect width="13.5" height="13.5" x="242.7" y="151.3" fill="#09EAFF"/><rect width="13.5" height="67.4" x="269.7" y="205.3" fill="#FF6BFF"/><rect width="13.5" height="27" x="323.6" y="218.8" fill="#09EAFF"/><rect width="13.5" height="13.5" x="323.6" y="259.2" fill="#09EAFF"/><rect width="13.5" height="27" x="350.6" y="245.7" fill="#FF6BFF"/><rect width="13.5" height="27" x="404.5" y="205.3" fill="#09EAFF"/><rect width="13.5" height="13.5" x="364.1" y="232.3" fill="#FF6BFF"/><rect width="13.5" height="13.5" x="391.1" y="232.3" fill="#09EAFF"/><rect width="13.5" height="13.5" x="350.6" y="205.3" fill="#FF6BFF"/><rect width="13.5" height="13.5" x="404.5" y="259.2" fill="#09EAFF"/><rect width="13.5" height="40.5" x="269.7" y="124.4" fill="#FF6BFF"/><rect width="13.5" height="67.4" x="188.8" y="110.9" fill="#FF6BFF"/><rect width="13.5" height="13.5" x="229.2" y="205.3" fill="#09EAFF"/><rect width="13.5" height="13.5" x="229.2" y="164.8" fill="#09EAFF"/><rect width="13.5" height="13.5" x="229.2" y="137.9" fill="#09EAFF"/><rect width="13.5" height="13.5" x="229.2" y="110.9" fill="#09EAFF"/><rect width="13.5" height="13.5" x="242.7" y="124.4" fill="#09EAFF"/><rect width="13.5" height="67.4" x="350.6" y="110.9" fill="#FF6BFF"/><rect width="13.5" height="27" x="404.5" y="124.4" fill="#09EAFF"/><rect width="13.5" height="13.5" x="404.5" y="164.8" fill="#09EAFF"/><rect width="13.5" height="13.5" x="283.2" y="164.8" fill="#FF6BFF"/><rect width="13.5" height="13.5" x="323.6" y="164.8" fill="#09EAFF"/><rect width="13.5" height="13.5" x="310.2" y="137.9" fill="#09EAFF"/><rect width="13.5" height="13.5" x="148.3" y="232.3" fill="#09EAFF"/><rect width="13.5" height="13.5" x="323.6" y="110.9" fill="#09EAFF"/><rect width="13.5" height="13.5" x="283.2" y="110.9" fill="#FF6BFF"/><rect width="13.5" height="13.5" x="80.9" y="245.7" fill="#09EAFF"/><rect width="13.5" height="40.5" x="107.9" y="218.8" fill="#FF6BFF"/><rect width="13.5" height="67.4" x="27" y="205.3" fill="#FF6BFF"/><rect width="13.5" height="13.5" x="67.4" y="259.2" fill="#09EAFF"/><rect width="13.5" height="13.5" x="67.4" y="232.3" fill="#09EAFF"/><rect width="13.5" height="13.5" x="67.4" y="205.3" fill="#09EAFF"/><rect width="13.5" height="13.5" x="80.9" y="218.8" fill="#09EAFF"/><rect width="13.5" height="13.5" x="121.4" y="259.2" fill="#FF6BFF"/><rect width="13.5" height="13.5" x="161.8" y="259.2" fill="#09EAFF"/><rect width="13.5" height="13.5" x="161.8" y="205.3" fill="#09EAFF"/><rect width="13.5" height="13.5" x="121.4" y="205.3" fill="#FF6BFF"/></g><g id="army"><rect width="40.5" height="13.5" x="80.9" y="299.7" fill="#F8FF25"/><polygon fill="#F8C825" points="121.4 340.1 80.9 340.1 80.9 313.2 67.4 313.2 67.4 340.1 67.4 353.6 67.4 367.1 80.9 367.1 80.9 353.6 121.4 353.6 121.4 367.1 134.8 367.1 134.8 353.6 134.8 340.1"/><rect width="13.5" height="27" x="121.4" y="313.2" fill="#F8FF25"/><polygon fill="#F8C825" points="202.3 340.1 161.8 340.1 161.8 299.7 148.3 299.7 148.3 340.1 148.3 353.6 148.3 367.1 161.8 367.1 161.8 353.6 202.3 353.6"/><rect width="13.5" height="67.4" x="229.2" y="299.7" fill="#F8C825"/><rect width="13.5" height="67.4" x="283.2" y="299.7" fill="#F8FF25"/><rect width="13.5" height="27" x="283.2" y="340.1" fill="#F8C825"/><rect width="13.5" height="27" x="202.3" y="313.2" fill="#F8FF25"/><rect width="13.5" height="13.5" x="202.3" y="353.6" fill="#F8C825"/><rect width="40.5" height="13.5" x="323.6" y="326.7" fill="#F8FF25"/><polygon fill="#F8C825" points="337.1 326.7 323.6 326.7 323.6 340.1 337.1 340.1 337.1 367.1 350.6 367.1 350.6 340.1 350.6 326.7"/><rect width="13.5" height="13.5" x="310.2" y="299.7" fill="#09EAFF"/><rect width="13.5" height="27" x="364.1" y="299.7" fill="#F8FF25"/><rect width="13.5" height="27" x="310.2" y="299.7" fill="#F8FF25"/><rect width="27" height="13.5" x="27" y="299.7" fill="#F8C825"/><rect width="13.5" height="13.5" x="40.5" y="299.7" fill="#F8FF25"/><rect width="27" height="13.5" x="27" y="326.7" fill="#F8C825"/><rect width="13.5" height="13.5" x="40.5" y="326.7" fill="#F8FF25"/><rect width="27" height="13.5" x="391.1" y="299.7" fill="#F8FF25"/><rect width="13.5" height="13.5" x="391.1" y="299.7" fill="#F8C825"/><rect width="27" height="13.5" x="391.1" y="326.7" fill="#F8FF25"/><rect width="13.5" height="13.5" x="391.1" y="326.7" fill="#F8C825"/><rect width="13.5" height="13.5" x="40.5" y="353.6" fill="#F8FF25"/><rect width="13.5" height="13.5" x="391.1" y="353.6" fill="#F8C825"/><rect width="13.5" height="13.5" x="364.1" y="367.1" fill="#09EAFF"/><rect width="13.5" height="13.5" x="337.1" y="286.2" fill="#09EAFF"/><rect width="13.5" height="13.5" x="94.4" y="367.1" fill="#09EAFF"/><rect width="13.5" height="13.5" x="175.3" y="367.1" fill="#FF6BFF"/><rect width="13.5" height="13.5" x="256.2" y="326.7" fill="#F8C825"/><rect width="13.5" height="13.5" x="310.2" y="313.2" fill="#F8C825"/><rect width="13.5" height="13.5" x="229.2" y="299.7" fill="#F8FF25"/><rect width="13.5" height="13.5" x="256.2" y="367.1" fill="#FF6BFF"/><rect width="13.5" height="27" x="13.5" y="353.6" fill="#09EAFF"/><rect width="13.5" height="27" x="418" y="353.6" fill="#FF6BFF"/><rect width="53.9" height="13.5" x="148.3" y="299.7" fill="#F8FF25"/><rect width="27" height="13.5" x="229.2" y="313.2" fill="#F8FF25"/><rect width="27" height="13.5" x="269.7" y="313.2" fill="#F8FF25"/><rect width="13.5" height="161.8" y="191.8" fill="#09EAFF"/></g></svg>