<svg xmlns="http://www.w3.org/2000/svg" viewBox="0 0 50 50">
	<path fill="#64fff4" d="M 15 3 C 14.449219 3 14 3.449219 14 4 C 14 4.550781 14.449219 5 15 5 C 15.550781 5 16 4.550781 16 4 C 16 3.449219 15.550781 3 15 3 Z M 35 3 C 34.449219 3 34 3.449219 34 4 C 34 4.550781 34.449219 5 35 5 C 35.550781 5 36 4.550781 36 4 C 36 3.449219 35.550781 3 35 3 Z M 15 6 C 14.449219 6 14 6.449219 14 7 C 14 7.550781 14.449219 8 15 8 C 15.550781 8 16 7.550781 16 7 C 16 6.449219 15.550781 6 15 6 Z M 35 6 C 34.449219 6 34 6.449219 34 7 C 34 7.550781 34.449219 8 35 8 C 35.550781 8 36 7.550781 36 7 C 36 6.449219 35.550781 6 35 6 Z M 45.84375 6 C 45.445313 6.0625 45.125 6.359375 45.03125 6.75 C 45.03125 6.75 44.445313 8.988281 43.78125 11.21875 C 43.449219 12.332031 43.109375 13.445313 42.8125 14.25 C 42.757813 14.402344 42.707031 14.464844 42.65625 14.59375 C 42.523438 14.476563 42.402344 14.386719 42.25 14.25 C 41.960938 13.996094 41.652344 13.734375 41.3125 13.5 C 40.972656 13.265625 40.605469 13 40 13 C 39.195313 13 38.882813 13.433594 38.5625 13.78125 C 38.242188 14.128906 37.933594 14.527344 37.65625 14.90625 C 37.378906 15.285156 37.132813 15.65625 36.9375 15.875 C 36.894531 15.925781 36.878906 15.914063 36.84375 15.9375 C 36.726563 15.902344 36.492188 15.835938 36.09375 15.5625 C 35.613281 15.234375 35.03125 14.746094 34.46875 14.25 C 33.90625 13.753906 33.351563 13.257813 32.8125 12.84375 C 32.273438 12.429688 31.855469 12 31 12 C 30.320313 12 30.167969 12.257813 29.90625 12.46875 C 29.644531 12.679688 29.382813 12.953125 29.09375 13.25 C 28.515625 13.84375 27.835938 14.59375 27.1875 15.34375 C 26.539063 16.09375 25.910156 16.839844 25.40625 17.375 C 25.167969 17.628906 24.953125 17.816406 24.8125 17.9375 C 24.6875 17.894531 24.25 17.769531 23.75 17.5625 C 23.457031 17.441406 23.175781 17.324219 22.90625 17.21875 C 22.636719 17.113281 22.492188 17 22 17 C 21.558594 17 21.476563 17.082031 21.3125 17.15625 C 21.148438 17.230469 21 17.335938 20.8125 17.4375 C 20.4375 17.636719 19.996094 17.875 19.5625 18.125 C 19.128906 18.375 18.679688 18.609375 18.34375 18.78125 C 18.1875 18.863281 18.058594 18.964844 17.96875 19 C 18.011719 19 18 19.003906 17.875 18.96875 C 17.714844 18.921875 17.484375 18.839844 17.21875 18.75 C 16.691406 18.566406 16.023438 18.3125 15.34375 18.0625 C 14.664063 17.8125 13.964844 17.566406 13.40625 17.375 C 13.125 17.277344 12.902344 17.1875 12.6875 17.125 C 12.472656 17.0625 12.371094 17 12 17 C 11.480469 17 11.300781 17.203125 11.125 17.34375 C 10.949219 17.484375 10.800781 17.648438 10.65625 17.8125 C 10.371094 18.136719 10.070313 18.503906 9.78125 18.875 C 9.492188 19.246094 9.21875 19.621094 9 19.84375 C 8.917969 19.929688 8.863281 19.945313 8.8125 19.96875 C 8.710938 19.953125 8.636719 19.933594 8.40625 19.875 C 8.074219 19.789063 7.660156 19.65625 7.25 19.53125 C 6.839844 19.40625 6.433594 19.289063 6.0625 19.1875 C 5.691406 19.085938 5.421875 19 5 19 C 4.527344 19 4.351563 19.152344 4.15625 19.28125 C 3.960938 19.410156 3.773438 19.558594 3.59375 19.71875 C 3.234375 20.042969 2.878906 20.453125 2.53125 20.84375 C 1.835938 21.621094 1.21875 22.375 1.21875 22.375 C 0.875 22.804688 0.941406 23.4375 1.375 23.78125 C 1.804688 24.125 2.4375 24.058594 2.78125 23.625 C 2.78125 23.625 3.355469 22.878906 4 22.15625 C 4.324219 21.796875 4.671875 21.457031 4.9375 21.21875 C 5.03125 21.132813 5.09375 21.078125 5.15625 21.03125 C 5.226563 21.046875 5.304688 21.0625 5.53125 21.125 C 5.851563 21.210938 6.242188 21.34375 6.65625 21.46875 C 7.070313 21.59375 7.515625 21.710938 7.90625 21.8125 C 8.296875 21.914063 8.589844 22 9 22 C 9.847656 22 10.109375 21.558594 10.4375 21.21875 C 10.765625 20.878906 11.078125 20.503906 11.375 20.125 C 11.671875 19.746094 11.949219 19.363281 12.15625 19.125 C 12.1875 19.089844 12.191406 19.089844 12.21875 19.0625 C 12.371094 19.109375 12.554688 19.171875 12.78125 19.25 C 13.308594 19.433594 13.976563 19.6875 14.65625 19.9375 C 15.335938 20.1875 16 20.433594 16.5625 20.625 C 16.84375 20.722656 17.097656 20.8125 17.3125 20.875 C 17.527344 20.9375 17.636719 21 18 21 C 18.363281 21 18.503906 20.917969 18.6875 20.84375 C 18.871094 20.769531 19.050781 20.695313 19.25 20.59375 C 19.648438 20.390625 20.121094 20.125 20.5625 19.875 C 21.003906 19.625 21.421875 19.363281 21.75 19.1875 C 21.886719 19.113281 21.980469 19.070313 22.0625 19.03125 C 22.070313 19.039063 22.042969 19.039063 22.1875 19.09375 C 22.402344 19.175781 22.691406 19.308594 23 19.4375 C 23.617188 19.695313 24.179688 20 25 20 C 25.378906 20 25.539063 19.871094 25.6875 19.78125 C 25.835938 19.691406 25.972656 19.605469 26.09375 19.5 C 26.339844 19.292969 26.566406 19.046875 26.84375 18.75 C 27.398438 18.160156 28.070313 17.40625 28.71875 16.65625 C 29.367188 15.90625 29.988281 15.15625 30.5 14.625 C 30.738281 14.378906 30.949219 14.183594 31.09375 14.0625 C 31.042969 14.085938 31.222656 14.121094 31.59375 14.40625 C 32.03125 14.742188 32.578125 15.246094 33.15625 15.75 C 33.496094 16.046875 33.859375 16.34375 34.21875 16.625 C 34.320313 16.753906 34.472656 16.839844 34.625 16.90625 C 34.746094 16.996094 34.847656 17.105469 34.96875 17.1875 C 35.582031 17.609375 36.183594 18 37 18 C 37.839844 18 38.097656 17.53125 38.40625 17.1875 C 38.714844 16.84375 39.007813 16.464844 39.28125 16.09375 C 39.554688 15.722656 39.832031 15.371094 40.03125 15.15625 C 40.078125 15.105469 40.089844 15.117188 40.125 15.09375 C 40.160156 15.113281 40.113281 15.09375 40.15625 15.125 C 40.359375 15.265625 40.628906 15.503906 40.90625 15.75 C 41.183594 15.996094 41.484375 16.242188 41.78125 16.46875 C 42.078125 16.695313 42.316406 17 43 17 C 43.628906 17 43.8125 16.6875 43.9375 16.53125 C 44.0625 16.375 44.109375 16.21875 44.1875 16.0625 C 44.347656 15.75 44.523438 15.378906 44.6875 14.9375 C 45.011719 14.054688 45.347656 12.917969 45.6875 11.78125 C 46.363281 9.511719 46.96875 7.25 46.96875 7.25 C 47.058594 6.921875 46.976563 6.570313 46.746094 6.316406 C 46.519531 6.066406 46.179688 5.945313 45.84375 6 Z M 15 9 C 14.449219 9 14 9.449219 14 10 C 14 10.550781 14.449219 11 15 11 C 15.550781 11 16 10.550781 16 10 C 16 9.449219 15.550781 9 15 9 Z M 35 9 C 34.449219 9 34 9.449219 34 10 C 34 10.550781 34.449219 11 35 11 C 35.550781 11 36 10.550781 36 10 C 36 9.449219 35.550781 9 35 9 Z M 15 12 C 14.449219 12 14 12.449219 14 13 C 14 13.550781 14.449219 14 15 14 C 15.550781 14 16 13.550781 16 13 C 16 12.449219 15.550781 12 15 12 Z M 35 12 C 34.449219 12 34 12.449219 34 13 C 34 13.550781 34.449219 14 35 14 C 35.550781 14 36 13.550781 36 13 C 36 12.449219 35.550781 12 35 12 Z M 15 15 C 14.449219 15 14 15.449219 14 16 C 14 16.550781 14.449219 17 15 17 C 15.550781 17 16 16.550781 16 16 C 16 15.449219 15.550781 15 15 15 Z M 35 18 C 34.449219 18 34 18.449219 34 19 C 34 19.550781 34.449219 20 35 20 C 35.550781 20 36 19.550781 36 19 C 36 18.449219 35.550781 18 35 18 Z M 15 21 C 14.449219 21 14 21.449219 14 22 C 14 22.550781 14.449219 23 15 23 C 15.550781 23 16 22.550781 16 22 C 16 21.449219 15.550781 21 15 21 Z M 35 21 C 34.449219 21 34 21.449219 34 22 C 34 22.550781 34.449219 23 35 23 C 35.550781 23 36 22.550781 36 22 C 36 21.449219 35.550781 21 35 21 Z M 15 24 C 14.449219 24 14 24.449219 14 25 C 14 25.550781 14.449219 26 15 26 C 15.550781 26 16 25.550781 16 25 C 16 24.449219 15.550781 24 15 24 Z M 35 24 C 34.449219 24 34 24.449219 34 25 C 34 25.550781 34.449219 26 35 26 C 35.550781 26 36 25.550781 36 25 C 36 24.449219 35.550781 24 35 24 Z M 15 27 C 14.449219 27 14 27.449219 14 28 C 14 28.550781 14.449219 29 15 29 C 15.550781 29 16 28.550781 16 28 C 16 27.449219 15.550781 27 15 27 Z M 35 27 C 34.449219 27 34 27.449219 34 28 C 34 28.550781 34.449219 29 35 29 C 35.550781 29 36 28.550781 36 28 C 36 27.449219 35.550781 27 35 27 Z M 15 30 C 14.449219 30 14 30.449219 14 31 C 14 31.550781 14.449219 32 15 32 C 15.550781 32 16 31.550781 16 31 C 16 30.449219 15.550781 30 15 30 Z M 35 30 C 34.449219 30 34 30.449219 34 31 C 34 31.550781 34.449219 32 35 32 C 35.550781 32 36 31.550781 36 31 C 36 30.449219 35.550781 30 35 30 Z M 15 33 C 14.449219 33 14 33.449219 14 34 C 14 34.550781 14.449219 35 15 35 C 15.550781 35 16 34.550781 16 34 C 16 33.449219 15.550781 33 15 33 Z M 35 33 C 34.449219 33 34 33.449219 34 34 C 34 34.550781 34.449219 35 35 35 C 35.550781 35 36 34.550781 36 34 C 36 33.449219 35.550781 33 35 33 Z M 15 36 C 14.449219 36 14 36.449219 14 37 C 14 37.550781 14.449219 38 15 38 C 15.550781 38 16 37.550781 16 37 C 16 36.449219 15.550781 36 15 36 Z M 35 36 C 34.449219 36 34 36.449219 34 37 C 34 37.550781 34.449219 38 35 38 C 35.550781 38 36 37.550781 36 37 C 36 36.449219 35.550781 36 35 36 Z M 15 39 C 14.449219 39 14 39.449219 14 40 C 14 40.550781 14.449219 41 15 41 C 15.550781 41 16 40.550781 16 40 C 16 39.449219 15.550781 39 15 39 Z M 35 39 C 34.449219 39 34 39.449219 34 40 C 34 40.550781 34.449219 41 35 41 C 35.550781 41 36 40.550781 36 40 C 36 39.449219 35.550781 39 35 39 Z M 15 42 C 14.449219 42 14 42.449219 14 43 C 14 43.550781 14.449219 44 15 44 C 15.550781 44 16 43.550781 16 43 C 16 42.449219 15.550781 42 15 42 Z M 35 42 C 34.449219 42 34 42.449219 34 43 C 34 43.550781 34.449219 44 35 44 C 35.550781 44 36 43.550781 36 43 C 36 42.449219 35.550781 42 35 42 Z M 15 45 C 14.449219 45 14 45.449219 14 46 L 3 46 C 2.96875 46 2.9375 46 2.90625 46 C 2.875 46 2.84375 46 2.8125 46 C 2.261719 46.050781 1.855469 46.542969 1.90625 47.09375 C 1.957031 47.644531 2.449219 48.050781 3 48 L 47 48 C 47.359375 48.003906 47.695313 47.816406 47.878906 47.503906 C 48.058594 47.191406 48.058594 46.808594 47.878906 46.496094 C 47.695313 46.183594 47.359375 45.996094 47 46 L 36 46 C 36 45.449219 35.550781 45 35 45 C 34.449219 45 34 45.449219 34 46 L 16 46 C 16 45.449219 15.550781 45 15 45 Z"></path>
</svg>