<?xml version="1.0" encoding="utf-8"?>
<!-- Generator: Adobe Illustrator 17.1.0, SVG Export Plug-In . SVG Version: 6.00 Build 0)  -->
<!DOCTYPE svg PUBLIC "-//W3C//DTD SVG 1.1//EN" "http://www.w3.org/Graphics/SVG/1.1/DTD/svg11.dtd">
<svg version="1.1" id="Layer_1" xmlns="http://www.w3.org/2000/svg" xmlns:xlink="http://www.w3.org/1999/xlink" x="0px" y="0px"
	 viewBox="193.9 0 57.2 61.6" enable-background="new 193.9 0 57.2 61.6" xml:space="preserve">
<polygon fill="#6a279c" points="193.9,17.6 211.5,17.6 211.5,8.8 215.9,8.8 215.9,0 229.1,0 229.1,8.8 233.5,8.8 233.5,17.6 
	251.1,17.6 251.1,30.8 246.7,30.8 246.7,35.2 242.3,35.2 242.3,39.6 246.7,39.6 246.7,61.6 233.5,61.6 233.5,57.2 224.7,57.2 
	224.7,52.8 220.3,52.8 220.3,57.2 211.5,57.2 211.5,61.6 198.3,61.6 198.3,39.6 202.7,39.6 202.7,35.2 198.3,35.2 198.3,30.8 
	193.9,30.8 "/>
<polygon fill="#F8FF25" points="220.3,4.4 224.7,4.4 224.7,13.2 229.1,13.2 229.1,22 246.7,22 246.7,26.4 242.3,26.4 242.3,30.8 
	237.9,30.8 237.9,35.2 233.5,35.2 233.5,39.6 237.9,39.6 237.9,44 242.3,44 242.3,57.2 237.9,57.2 237.9,52.8 229.1,52.8 
	229.1,48.4 215.9,48.4 215.9,52.8 207.1,52.8 207.1,57.2 202.7,57.2 202.7,44 207.1,44 207.1,39.6 211.5,39.6 211.5,35.2 
	207.1,35.2 207.1,30.8 202.7,30.8 202.7,26.4 198.3,26.4 198.3,22 215.9,22 215.9,13.2 220.3,13.2 "/>
<polygon fill="#F8C825" points="215.9,13.2 220.3,13.2 220.3,26.4 224.7,26.4 224.7,39.6 220.3,39.6 220.3,44 215.9,44 215.9,48.4 
	211.5,48.4 211.5,52.8 207.1,52.8 207.1,57.2 202.7,57.2 202.7,44 207.1,44 207.1,39.6 211.5,39.6 211.5,35.2 207.1,35.2 
	207.1,30.8 202.7,30.8 202.7,26.4 215.9,26.4 "/>
<rect x="220.3" y="44" fill="#F8C825" width="8.8" height="4.4"/>
<rect x="229.1" y="48.4" fill="#F8C825" width="8.8" height="4.4"/>
<rect x="237.9" y="52.8" fill="#F8C825" width="4.4" height="4.4"/>
</svg>
